<?xml version="1.0" encoding="UTF-8" standalone="no"?>
<!DOCTYPE svg PUBLIC "-//W3C//DTD SVG 1.1//EN"
 "http://www.w3.org/Graphics/SVG/1.1/DTD/svg11.dtd">
<!-- Generated by graphviz version 2.30.1 (20140821.0912)
 -->
<!-- Title: tree Pages: 1 -->
<svg width="334pt" height="119pt"
 viewBox="0.00 0.00 334.00 119.00" xmlns="http://www.w3.org/2000/svg" xmlns:xlink="http://www.w3.org/1999/xlink">
<g id="graph0" class="graph" transform="scale(1 1) rotate(0) translate(4 115)">
<title>tree</title>
<polygon fill="white" stroke="white" points="-4,5 -4,-115 331,-115 331,5 -4,5"/>
<!-- A -->
<g id="node1" class="node"><title>A</title>
<polygon fill="none" stroke="black" points="0,-32 0,-78 54,-78 54,-32 0,-32"/>
<text text-anchor="middle" x="14" y="-51.3" font-family="Times,serif" font-size="14.00">A</text>
<polyline fill="none" stroke="black" points="28,-32 28,-78 "/>
<text text-anchor="middle" x="41" y="-62.8" font-family="Times,serif" font-size="14.00">1</text>
<polyline fill="none" stroke="black" points="28,-55 54,-55 "/>
<text text-anchor="middle" x="41" y="-39.8" font-family="Times,serif" font-size="14.00">2</text>
</g>
<!-- B -->
<g id="node2" class="node"><title>B</title>
<polygon fill="none" stroke="black" points="90,-32 90,-78 144,-78 144,-32 90,-32"/>
<text text-anchor="middle" x="104" y="-51.3" font-family="Times,serif" font-size="14.00">B</text>
<polyline fill="none" stroke="black" points="118,-32 118,-78 "/>
<text text-anchor="middle" x="131" y="-62.8" font-family="Times,serif" font-size="14.00">3</text>
<polyline fill="none" stroke="black" points="118,-55 144,-55 "/>
<text text-anchor="middle" x="131" y="-39.8" font-family="Times,serif" font-size="14.00">4</text>
</g>
<!-- A&#45;&gt;B -->
<g id="edge1" class="edge"><title>A&#45;&gt;B</title>
<path fill="none" stroke="black" d="M54.4029,-55C62.3932,-55 71.3106,-55 79.8241,-55"/>
<polygon fill="black" stroke="black" points="79.919,-58.5001 89.919,-55 79.919,-51.5001 79.919,-58.5001"/>
</g>
<!-- C -->
<g id="node3" class="node"><title>C</title>
<polygon fill="none" stroke="black" points="180,-65 180,-111 234,-111 234,-65 180,-65"/>
<text text-anchor="middle" x="194" y="-84.3" font-family="Times,serif" font-size="14.00">C</text>
<polyline fill="none" stroke="black" points="208,-65 208,-111 "/>
<text text-anchor="middle" x="221" y="-95.8" font-family="Times,serif" font-size="14.00">5</text>
<polyline fill="none" stroke="black" points="208,-88 234,-88 "/>
<text text-anchor="middle" x="221" y="-72.8" font-family="Times,serif" font-size="14.00">6</text>
</g>
<!-- B&#45;&gt;C -->
<g id="edge2" class="edge"><title>B&#45;&gt;C</title>
<path fill="none" stroke="black" d="M144.403,-64.9011C152.569,-67.9633 161.703,-71.3886 170.385,-74.6443"/>
<polygon fill="black" stroke="black" points="169.327,-77.9855 179.919,-78.2196 171.785,-71.4312 169.327,-77.9855"/>
</g>
<!-- D -->
<g id="node4" class="node"><title>D</title>
<polygon fill="none" stroke="black" points="180,-0 180,-46 234,-46 234,-0 180,-0"/>
<text text-anchor="middle" x="194" y="-19.3" font-family="Times,serif" font-size="14.00">D</text>
<polyline fill="none" stroke="black" points="208,-0 208,-46 "/>
<text text-anchor="middle" x="221" y="-30.8" font-family="Times,serif" font-size="14.00">7</text>
<polyline fill="none" stroke="black" points="208,-23 234,-23 "/>
<text text-anchor="middle" x="221" y="-7.8" font-family="Times,serif" font-size="14.00">8</text>
</g>
<!-- B&#45;&gt;D -->
<g id="edge3" class="edge"><title>B&#45;&gt;D</title>
<path fill="none" stroke="black" d="M144.403,-45.3989C152.569,-42.4295 161.703,-39.108 170.385,-35.951"/>
<polygon fill="black" stroke="black" points="171.717,-39.1908 179.919,-32.484 169.325,-32.6122 171.717,-39.1908"/>
</g>
<!-- E -->
<g id="node5" class="node"><title>E</title>
<polygon fill="none" stroke="black" points="270.5,-0 270.5,-46 325.5,-46 325.5,-0 270.5,-0"/>
<text text-anchor="middle" x="283" y="-19.3" font-family="Times,serif" font-size="14.00">E</text>
<polyline fill="none" stroke="black" points="295.5,-0 295.5,-46 "/>
<text text-anchor="middle" x="310.5" y="-30.8" font-family="Times,serif" font-size="14.00">9</text>
<polyline fill="none" stroke="black" points="295.5,-23 325.5,-23 "/>
<text text-anchor="middle" x="310.5" y="-7.8" font-family="Times,serif" font-size="14.00">10</text>
</g>
<!-- D&#45;&gt;E -->
<g id="edge4" class="edge"><title>D&#45;&gt;E</title>
<path fill="none" stroke="black" d="M234.222,-23C242.403,-23 251.582,-23 260.343,-23"/>
<polygon fill="black" stroke="black" points="260.35,-26.5001 270.35,-23 260.35,-19.5001 260.35,-26.5001"/>
</g>
</g>
</svg>
