<?xml version="1.0" encoding="UTF-8" standalone="no"?>
<!DOCTYPE svg PUBLIC "-//W3C//DTD SVG 1.1//EN"
 "http://www.w3.org/Graphics/SVG/1.1/DTD/svg11.dtd">
<!-- Generated by graphviz version 2.30.1 (20140821.0912)
 -->
<!-- Title: directed1 Pages: 1 -->
<svg width="242pt" height="98pt"
 viewBox="0.00 0.00 242.00 98.00" xmlns="http://www.w3.org/2000/svg" xmlns:xlink="http://www.w3.org/1999/xlink">
<g id="graph0" class="graph" transform="scale(1 1) rotate(0) translate(4 94)">
<title>directed1</title>
<polygon fill="white" stroke="white" points="-4,5 -4,-94 239,-94 239,5 -4,5"/>
<!-- A -->
<g id="node1" class="node"><title>A</title>
<ellipse fill="none" stroke="black" cx="27" cy="-72" rx="27" ry="18"/>
<text text-anchor="middle" x="27" y="-68.3" font-family="Times,serif" font-size="14.00">A</text>
</g>
<!-- B -->
<g id="node2" class="node"><title>B</title>
<ellipse fill="none" stroke="black" cx="117" cy="-64" rx="27" ry="18"/>
<text text-anchor="middle" x="117" y="-60.3" font-family="Times,serif" font-size="14.00">B</text>
</g>
<!-- A&#45;&gt;B -->
<g id="edge1" class="edge"><title>A&#45;&gt;B</title>
<path fill="none" stroke="black" d="M53.9269,-69.643C62.0895,-68.901 71.2564,-68.0676 79.9888,-67.2737"/>
<polygon fill="black" stroke="black" points="80.3123,-70.7589 89.9543,-66.3678 79.6784,-63.7876 80.3123,-70.7589"/>
</g>
<!-- C -->
<g id="node3" class="node"><title>C</title>
<ellipse fill="none" stroke="black" cx="207" cy="-41" rx="27" ry="18"/>
<text text-anchor="middle" x="207" y="-37.3" font-family="Times,serif" font-size="14.00">C</text>
</g>
<!-- B&#45;&gt;C -->
<g id="edge2" class="edge"><title>B&#45;&gt;C</title>
<path fill="none" stroke="black" d="M142.513,-57.5932C151.572,-55.2256 162.012,-52.497 171.775,-49.9452"/>
<polygon fill="black" stroke="black" points="172.829,-53.2874 181.619,-47.3724 171.058,-46.5149 172.829,-53.2874"/>
</g>
<!-- D -->
<g id="node4" class="node"><title>D</title>
<ellipse fill="none" stroke="black" cx="27" cy="-18" rx="27" ry="18"/>
<text text-anchor="middle" x="27" y="-14.3" font-family="Times,serif" font-size="14.00">D</text>
</g>
<!-- D&#45;&gt;B -->
<g id="edge3" class="edge"><title>D&#45;&gt;B</title>
<path fill="none" stroke="black" d="M48.8548,-28.9014C60.0333,-34.7447 73.998,-42.0444 86.2926,-48.4711"/>
<polygon fill="black" stroke="black" points="84.8113,-51.6461 95.2949,-53.1769 88.0541,-45.4425 84.8113,-51.6461"/>
</g>
<!-- D&#45;&gt;C -->
<g id="edge4" class="edge"><title>D&#45;&gt;C</title>
<path fill="none" stroke="black" d="M53.8827,-21.3444C84.5538,-25.3075 135.829,-31.933 170.269,-36.383"/>
<polygon fill="black" stroke="black" points="170.009,-39.8785 180.375,-37.6889 170.906,-32.9362 170.009,-39.8785"/>
</g>
</g>
</svg>
