<?xml version="1.0" encoding="UTF-8" standalone="no"?>
<!DOCTYPE svg PUBLIC "-//W3C//DTD SVG 1.1//EN"
 "http://www.w3.org/Graphics/SVG/1.1/DTD/svg11.dtd">
<!-- Generated by graphviz version 2.30.1 (20140821.0912)
 -->
<!-- Title: directed1 Pages: 1 -->
<svg width="332pt" height="67pt"
 viewBox="0.00 0.00 332.00 67.00" xmlns="http://www.w3.org/2000/svg" xmlns:xlink="http://www.w3.org/1999/xlink">
<g id="graph0" class="graph" transform="scale(1 1) rotate(0) translate(4 63)">
<title>directed1</title>
<polygon fill="white" stroke="white" points="-4,5 -4,-63 329,-63 329,5 -4,5"/>
<!-- A -->
<g id="node1" class="node"><title>A</title>
<ellipse fill="none" stroke="black" cx="27" cy="-18" rx="27" ry="18"/>
<text text-anchor="middle" x="27" y="-14.3" font-family="Times,serif" font-size="14.00">A</text>
</g>
<!-- B -->
<g id="node2" class="node"><title>B</title>
<ellipse fill="none" stroke="black" cx="117" cy="-18" rx="27" ry="18"/>
<text text-anchor="middle" x="117" y="-14.3" font-family="Times,serif" font-size="14.00">B</text>
</g>
<!-- A&#45;&gt;B -->
<g id="edge1" class="edge"><title>A&#45;&gt;B</title>
<path fill="none" stroke="black" d="M54.4029,-18C62.3932,-18 71.3106,-18 79.8241,-18"/>
<polygon fill="black" stroke="black" points="79.919,-21.5001 89.919,-18 79.919,-14.5001 79.919,-21.5001"/>
</g>
<!-- C -->
<g id="node3" class="node"><title>C</title>
<ellipse fill="none" stroke="black" cx="207" cy="-41" rx="27" ry="18"/>
<text text-anchor="middle" x="207" y="-37.3" font-family="Times,serif" font-size="14.00">C</text>
</g>
<!-- B&#45;&gt;C -->
<g id="edge2" class="edge"><title>B&#45;&gt;C</title>
<path fill="none" stroke="black" d="M142.513,-24.4068C151.572,-26.7744 162.012,-29.503 171.775,-32.0548"/>
<polygon fill="black" stroke="black" points="171.058,-35.4851 181.619,-34.6276 172.829,-28.7126 171.058,-35.4851"/>
</g>
<!-- D -->
<g id="node4" class="node"><title>D</title>
<ellipse fill="none" stroke="black" cx="297" cy="-18" rx="27" ry="18"/>
<text text-anchor="middle" x="297" y="-14.3" font-family="Times,serif" font-size="14.00">D</text>
</g>
<!-- C&#45;&gt;D -->
<g id="edge3" class="edge"><title>C&#45;&gt;D</title>
<path fill="none" stroke="black" d="M232.513,-34.5932C241.572,-32.2256 252.012,-29.497 261.775,-26.9452"/>
<polygon fill="black" stroke="black" points="262.829,-30.2874 271.619,-24.3724 261.058,-23.5149 262.829,-30.2874"/>
</g>
<!-- D&#45;&gt;B -->
<g id="edge4" class="edge"><title>D&#45;&gt;B</title>
<path fill="none" stroke="black" d="M270.075,-15.9538C258.974,-15.1744 245.859,-14.3821 234,-14 210.012,-13.227 203.988,-13.227 180,-14 171.569,-14.2717 162.504,-14.7506 153.978,-15.2849"/>
<polygon fill="black" stroke="black" points="153.67,-11.7975 143.925,-15.9538 154.135,-18.7821 153.67,-11.7975"/>
</g>
</g>
</svg>
