<?xml version="1.0" encoding="UTF-8" standalone="no"?>
<!DOCTYPE svg PUBLIC "-//W3C//DTD SVG 1.1//EN"
 "http://www.w3.org/Graphics/SVG/1.1/DTD/svg11.dtd">
<!-- Generated by graphviz version 2.30.1 (20140821.0912)
 -->
<!-- Title: tree Pages: 1 -->
<svg width="332pt" height="98pt"
 viewBox="0.00 0.00 332.00 98.00" xmlns="http://www.w3.org/2000/svg" xmlns:xlink="http://www.w3.org/1999/xlink">
<g id="graph0" class="graph" transform="scale(1 1) rotate(0) translate(4 94)">
<title>tree</title>
<polygon fill="white" stroke="white" points="-4,5 -4,-94 329,-94 329,5 -4,5"/>
<!-- A -->
<g id="node1" class="node"><title>A</title>
<ellipse fill="none" stroke="black" cx="27" cy="-45" rx="27" ry="18"/>
<text text-anchor="middle" x="27" y="-41.3" font-family="Times,serif" font-size="14.00">A</text>
</g>
<!-- B -->
<g id="node2" class="node"><title>B</title>
<ellipse fill="none" stroke="black" cx="117" cy="-45" rx="27" ry="18"/>
<text text-anchor="middle" x="117" y="-41.3" font-family="Times,serif" font-size="14.00">B</text>
</g>
<!-- A&#45;&gt;B -->
<g id="edge1" class="edge"><title>A&#45;&gt;B</title>
<path fill="none" stroke="black" d="M54.4029,-45C62.3932,-45 71.3106,-45 79.8241,-45"/>
<polygon fill="black" stroke="black" points="79.919,-48.5001 89.919,-45 79.919,-41.5001 79.919,-48.5001"/>
</g>
<!-- C -->
<g id="node3" class="node"><title>C</title>
<ellipse fill="none" stroke="black" cx="207" cy="-72" rx="27" ry="18"/>
<text text-anchor="middle" x="207" y="-68.3" font-family="Times,serif" font-size="14.00">C</text>
</g>
<!-- B&#45;&gt;C -->
<g id="edge2" class="edge"><title>B&#45;&gt;C</title>
<path fill="none" stroke="black" d="M142.046,-52.3779C151.435,-55.2586 162.362,-58.6112 172.5,-61.7215"/>
<polygon fill="black" stroke="black" points="171.701,-65.1373 182.287,-64.7245 173.754,-58.4452 171.701,-65.1373"/>
</g>
<!-- D -->
<g id="node4" class="node"><title>D</title>
<ellipse fill="none" stroke="black" cx="207" cy="-18" rx="27" ry="18"/>
<text text-anchor="middle" x="207" y="-14.3" font-family="Times,serif" font-size="14.00">D</text>
</g>
<!-- B&#45;&gt;D -->
<g id="edge3" class="edge"><title>B&#45;&gt;D</title>
<path fill="none" stroke="black" d="M142.046,-37.6221C151.435,-34.7414 162.362,-31.3888 172.5,-28.2785"/>
<polygon fill="black" stroke="black" points="173.754,-31.5548 182.287,-25.2755 171.701,-24.8627 173.754,-31.5548"/>
</g>
<!-- E -->
<g id="node5" class="node"><title>E</title>
<ellipse fill="none" stroke="black" cx="297" cy="-18" rx="27" ry="18"/>
<text text-anchor="middle" x="297" y="-14.3" font-family="Times,serif" font-size="14.00">E</text>
</g>
<!-- D&#45;&gt;E -->
<g id="edge4" class="edge"><title>D&#45;&gt;E</title>
<path fill="none" stroke="black" d="M234.403,-18C242.393,-18 251.311,-18 259.824,-18"/>
<polygon fill="black" stroke="black" points="259.919,-21.5001 269.919,-18 259.919,-14.5001 259.919,-21.5001"/>
</g>
</g>
</svg>
