<?xml version="1.0" encoding="UTF-8" standalone="no"?>
<!DOCTYPE svg PUBLIC "-//W3C//DTD SVG 1.1//EN"
 "http://www.w3.org/Graphics/SVG/1.1/DTD/svg11.dtd">
<!-- Generated by graphviz version 2.30.1 (20140821.0912)
 -->
<!-- Title: tree Pages: 1 -->
<svg width="1074pt" height="296pt"
 viewBox="0.00 0.00 1074.00 296.00" xmlns="http://www.w3.org/2000/svg" xmlns:xlink="http://www.w3.org/1999/xlink">
<g id="graph0" class="graph" transform="scale(1 1) rotate(0) translate(4 292)">
<title>tree</title>
<polygon fill="white" stroke="white" points="-4,5 -4,-292 1071,-292 1071,5 -4,5"/>
<!-- A -->
<g id="node1" class="node"><title>A</title>
<polygon fill="none" stroke="black" points="0.5,-82 0.5,-118 123.5,-118 123.5,-82 0.5,-82"/>
<text text-anchor="middle" x="31.5" y="-96.3" font-family="Times,serif" font-size="14.00">dc=com</text>
<polyline fill="none" stroke="black" points="62.5,-82 62.5,-118 "/>
<text text-anchor="middle" x="93" y="-96.3" font-family="Times,serif" font-size="14.00">dc: com</text>
</g>
<!-- B -->
<g id="node2" class="node"><title>B</title>
<polygon fill="none" stroke="black" points="160.5,-82 160.5,-118 327.5,-118 327.5,-82 160.5,-82"/>
<text text-anchor="middle" x="202.5" y="-96.3" font-family="Times,serif" font-size="14.00">dc=example</text>
<polyline fill="none" stroke="black" points="244.5,-82 244.5,-118 "/>
<text text-anchor="middle" x="286" y="-96.3" font-family="Times,serif" font-size="14.00">dc: example</text>
</g>
<!-- A&#45;&gt;B -->
<g id="edge1" class="edge"><title>A&#45;&gt;B</title>
<path fill="none" stroke="black" d="M123.689,-100C132.217,-100 141.139,-100 150.099,-100"/>
<polygon fill="black" stroke="black" points="150.213,-103.5 160.213,-100 150.213,-96.5001 150.213,-103.5"/>
</g>
<!-- C -->
<g id="node3" class="node"><title>C</title>
<polygon fill="none" stroke="black" points="438,-165 438,-211 640,-211 640,-165 438,-165"/>
<text text-anchor="middle" x="477" y="-184.3" font-family="Times,serif" font-size="14.00">ou=Groups</text>
<polyline fill="none" stroke="black" points="516,-165 516,-211 "/>
<text text-anchor="middle" x="578" y="-195.8" font-family="Times,serif" font-size="14.00">ou: Groups</text>
<polyline fill="none" stroke="black" points="516,-188 640,-188 "/>
<text text-anchor="middle" x="578" y="-172.8" font-family="Times,serif" font-size="14.00">description: Groups</text>
</g>
<!-- B&#45;&gt;C -->
<g id="edge2" class="edge"><title>B&#45;&gt;C</title>
<path fill="none" stroke="black" d="M278.224,-118.043C301.614,-130.069 333.982,-145.378 364,-155 384.221,-161.482 406.195,-166.868 427.505,-171.278"/>
<polygon fill="black" stroke="black" points="427.077,-174.761 437.57,-173.3 428.456,-167.899 427.077,-174.761"/>
</g>
<!-- D -->
<g id="node4" class="node"><title>D</title>
<polygon fill="none" stroke="black" points="464.5,-110 464.5,-146 613.5,-146 613.5,-110 464.5,-110"/>
<text text-anchor="middle" x="502" y="-124.3" font-family="Times,serif" font-size="14.00">ou=People</text>
<polyline fill="none" stroke="black" points="539.5,-110 539.5,-146 "/>
<text text-anchor="middle" x="576.5" y="-124.3" font-family="Times,serif" font-size="14.00">ou: People</text>
</g>
<!-- B&#45;&gt;D -->
<g id="edge3" class="edge"><title>B&#45;&gt;D</title>
<path fill="none" stroke="black" d="M327.787,-107.911C367.328,-111.69 414.56,-116.204 454.228,-119.994"/>
<polygon fill="black" stroke="black" points="454.117,-123.5 464.405,-120.967 454.783,-116.532 454.117,-123.5"/>
</g>
<!-- E -->
<g id="node5" class="node"><title>E</title>
<polygon fill="none" stroke="black" points="364.5,-55 364.5,-91 713.5,-91 713.5,-55 364.5,-55"/>
<text text-anchor="middle" x="452" y="-69.3" font-family="Times,serif" font-size="14.00">cn=Directory Administrators</text>
<polyline fill="none" stroke="black" points="539.5,-55 539.5,-91 "/>
<text text-anchor="middle" x="626.5" y="-69.3" font-family="Times,serif" font-size="14.00">cn: Directory Administrators</text>
</g>
<!-- B&#45;&gt;E -->
<g id="edge4" class="edge"><title>B&#45;&gt;E</title>
<path fill="none" stroke="black" d="M327.787,-92.3711C336.362,-91.581 345.299,-90.7574 354.442,-89.9149"/>
<polygon fill="black" stroke="black" points="354.799,-93.3969 364.436,-88.994 354.157,-86.4264 354.799,-93.3969"/>
</g>
<!-- F -->
<g id="node6" class="node"><title>F</title>
<polygon fill="none" stroke="black" points="426.5,-0 426.5,-36 651.5,-36 651.5,-0 426.5,-0"/>
<text text-anchor="middle" x="483" y="-14.3" font-family="Times,serif" font-size="14.00">ou=Special Users</text>
<polyline fill="none" stroke="black" points="539.5,-0 539.5,-36 "/>
<text text-anchor="middle" x="595.5" y="-14.3" font-family="Times,serif" font-size="14.00">ou: Special Users</text>
</g>
<!-- B&#45;&gt;F -->
<g id="edge5" class="edge"><title>B&#45;&gt;F</title>
<path fill="none" stroke="black" d="M277.621,-81.9017C301.002,-69.6902 333.608,-54.1836 364,-45 380.512,-40.0107 398.198,-35.909 415.739,-32.5462"/>
<polygon fill="black" stroke="black" points="416.839,-35.9027 426.04,-30.6504 415.572,-29.0183 416.839,-35.9027"/>
</g>
<!-- G -->
<g id="node7" class="node"><title>G</title>
<polygon fill="none" stroke="black" points="750,-252 750,-288 1066,-288 1066,-252 750,-252"/>
<text text-anchor="middle" x="829" y="-266.3" font-family="Times,serif" font-size="14.00">cn=Accounting Managers</text>
<polyline fill="none" stroke="black" points="908,-252 908,-288 "/>
<text text-anchor="middle" x="987" y="-266.3" font-family="Times,serif" font-size="14.00">cn: Accounting Managers</text>
</g>
<!-- C&#45;&gt;G -->
<g id="edge6" class="edge"><title>C&#45;&gt;G</title>
<path fill="none" stroke="black" d="M623.703,-211.063C662.038,-221.228 708.157,-232.902 750,-242 762.72,-244.766 776.063,-247.46 789.372,-250.016"/>
<polygon fill="black" stroke="black" points="789.055,-253.518 799.532,-251.942 790.359,-246.64 789.055,-253.518"/>
</g>
<!-- H -->
<g id="node8" class="node"><title>H</title>
<polygon fill="none" stroke="black" points="794.5,-197 794.5,-233 1021.5,-233 1021.5,-197 794.5,-197"/>
<text text-anchor="middle" x="851.5" y="-211.3" font-family="Times,serif" font-size="14.00">cn=HR Managers</text>
<polyline fill="none" stroke="black" points="908.5,-197 908.5,-233 "/>
<text text-anchor="middle" x="965" y="-211.3" font-family="Times,serif" font-size="14.00">cn: HR Managers</text>
</g>
<!-- C&#45;&gt;H -->
<g id="edge7" class="edge"><title>C&#45;&gt;H</title>
<path fill="none" stroke="black" d="M640.284,-195.378C684.673,-198.644 737.304,-202.516 784.036,-205.954"/>
<polygon fill="black" stroke="black" points="783.992,-209.46 794.222,-206.703 784.506,-202.479 783.992,-209.46"/>
</g>
<!-- I -->
<g id="node9" class="node"><title>I</title>
<polygon fill="none" stroke="black" points="793.5,-142 793.5,-178 1022.5,-178 1022.5,-142 793.5,-142"/>
<text text-anchor="middle" x="851" y="-156.3" font-family="Times,serif" font-size="14.00">cn=QA Managers</text>
<polyline fill="none" stroke="black" points="908.5,-142 908.5,-178 "/>
<text text-anchor="middle" x="965.5" y="-156.3" font-family="Times,serif" font-size="14.00">cn: QA Managers</text>
</g>
<!-- C&#45;&gt;I -->
<g id="edge8" class="edge"><title>C&#45;&gt;I</title>
<path fill="none" stroke="black" d="M640.284,-180.349C684.376,-176.985 736.601,-173 783.098,-169.453"/>
<polygon fill="black" stroke="black" points="783.531,-172.93 793.236,-168.68 782.998,-165.951 783.531,-172.93"/>
</g>
<!-- J -->
<g id="node10" class="node"><title>J</title>
<polygon fill="none" stroke="black" points="795.5,-87 795.5,-123 1020.5,-123 1020.5,-87 795.5,-87"/>
<text text-anchor="middle" x="852" y="-101.3" font-family="Times,serif" font-size="14.00">cn=PD Managers</text>
<polyline fill="none" stroke="black" points="908.5,-87 908.5,-123 "/>
<text text-anchor="middle" x="964.5" y="-101.3" font-family="Times,serif" font-size="14.00">cn: PD Managers</text>
</g>
<!-- C&#45;&gt;J -->
<g id="edge9" class="edge"><title>C&#45;&gt;J</title>
<path fill="none" stroke="black" d="M640.188,-175.381C664.81,-170.553 690.762,-163.959 714,-155 731.496,-148.254 732.468,-139.65 750,-133 761.337,-128.7 773.39,-125.052 785.581,-121.958"/>
<polygon fill="black" stroke="black" points="786.477,-125.343 795.377,-119.595 784.835,-118.538 786.477,-125.343"/>
</g>
</g>
</svg>
