<?xml version="1.0" encoding="UTF-8" standalone="no"?>
<!DOCTYPE svg PUBLIC "-//W3C//DTD SVG 1.1//EN"
 "http://www.w3.org/Graphics/SVG/1.1/DTD/svg11.dtd">
<!-- Generated by graphviz version 2.30.1 (20140821.0912)
 -->
<!-- Title: tree Pages: 1 -->
<svg width="740pt" height="114pt"
 viewBox="0.00 0.00 740.00 114.00" xmlns="http://www.w3.org/2000/svg" xmlns:xlink="http://www.w3.org/1999/xlink">
<g id="graph0" class="graph" transform="scale(1 1) rotate(0) translate(4 110)">
<title>tree</title>
<polygon fill="white" stroke="white" points="-4,5 -4,-110 737,-110 737,5 -4,5"/>
<!-- A -->
<g id="node1" class="node"><title>A</title>
<polygon fill="none" stroke="black" points="0.5,-35 0.5,-71 123.5,-71 123.5,-35 0.5,-35"/>
<text text-anchor="middle" x="31.5" y="-49.3" font-family="Times,serif" font-size="14.00">dc=com</text>
<polyline fill="none" stroke="black" points="62.5,-35 62.5,-71 "/>
<text text-anchor="middle" x="93" y="-49.3" font-family="Times,serif" font-size="14.00">dc: com</text>
</g>
<!-- B -->
<g id="node2" class="node"><title>B</title>
<polygon fill="none" stroke="black" points="160.5,-35 160.5,-71 327.5,-71 327.5,-35 160.5,-35"/>
<text text-anchor="middle" x="202.5" y="-49.3" font-family="Times,serif" font-size="14.00">dc=example</text>
<polyline fill="none" stroke="black" points="244.5,-35 244.5,-71 "/>
<text text-anchor="middle" x="286" y="-49.3" font-family="Times,serif" font-size="14.00">dc: example</text>
</g>
<!-- A&#45;&gt;B -->
<g id="edge1" class="edge"><title>A&#45;&gt;B</title>
<path fill="none" stroke="black" d="M123.689,-53C132.217,-53 141.139,-53 150.099,-53"/>
<polygon fill="black" stroke="black" points="150.213,-56.5001 160.213,-53 150.213,-49.5001 150.213,-56.5001"/>
</g>
<!-- C -->
<g id="node3" class="node"><title>C</title>
<polygon fill="none" stroke="black" points="364,-60 364,-106 566,-106 566,-60 364,-60"/>
<text text-anchor="middle" x="403" y="-79.3" font-family="Times,serif" font-size="14.00">ou=Groups</text>
<polyline fill="none" stroke="black" points="442,-60 442,-106 "/>
<text text-anchor="middle" x="504" y="-90.8" font-family="Times,serif" font-size="14.00">ou: Groups</text>
<polyline fill="none" stroke="black" points="442,-83 566,-83 "/>
<text text-anchor="middle" x="504" y="-67.8" font-family="Times,serif" font-size="14.00">description: Groups</text>
</g>
<!-- B&#45;&gt;C -->
<g id="edge2" class="edge"><title>B&#45;&gt;C</title>
<path fill="none" stroke="black" d="M327.795,-64.3417C336.239,-65.4985 344.91,-66.6863 353.588,-67.8751"/>
<polygon fill="black" stroke="black" points="353.383,-71.3796 363.766,-69.2693 354.333,-64.4444 353.383,-71.3796"/>
</g>
<!-- D -->
<g id="node4" class="node"><title>D</title>
<polygon fill="none" stroke="black" points="390.5,-5 390.5,-41 539.5,-41 539.5,-5 390.5,-5"/>
<text text-anchor="middle" x="428" y="-19.3" font-family="Times,serif" font-size="14.00">ou=People</text>
<polyline fill="none" stroke="black" points="465.5,-5 465.5,-41 "/>
<text text-anchor="middle" x="502.5" y="-19.3" font-family="Times,serif" font-size="14.00">ou: People</text>
</g>
<!-- B&#45;&gt;D -->
<g id="edge3" class="edge"><title>B&#45;&gt;D</title>
<path fill="none" stroke="black" d="M327.795,-41.6583C345.008,-39.3003 363.159,-36.8139 380.401,-34.452"/>
<polygon fill="black" stroke="black" points="381.001,-37.9025 390.434,-33.0776 380.051,-30.9672 381.001,-37.9025"/>
</g>
<!-- E -->
<g id="node5" class="node"><title>E</title>
<polygon fill="none" stroke="black" points="602.5,-0 602.5,-46 731.5,-46 731.5,-0 602.5,-0"/>
<text text-anchor="middle" x="635" y="-19.3" font-family="Times,serif" font-size="14.00">uid=user</text>
<polyline fill="none" stroke="black" points="667.5,-0 667.5,-46 "/>
<text text-anchor="middle" x="699.5" y="-30.8" font-family="Times,serif" font-size="14.00">uid: user</text>
<polyline fill="none" stroke="black" points="667.5,-23 731.5,-23 "/>
<text text-anchor="middle" x="699.5" y="-7.8" font-family="Times,serif" font-size="14.00">cn: bob</text>
</g>
<!-- D&#45;&gt;E -->
<g id="edge4" class="edge"><title>D&#45;&gt;E</title>
<path fill="none" stroke="black" d="M539.621,-23C556.684,-23 574.852,-23 591.934,-23"/>
<polygon fill="black" stroke="black" points="592.411,-26.5001 602.411,-23 592.411,-19.5001 592.411,-26.5001"/>
</g>
</g>
</svg>
